<svg width="42" height="42" viewBox="0 0 42 42" fill="none" xmlns="http://www.w3.org/2000/svg">
<path d="M20.4213 33.1494C20.5903 33.2691 20.7923 33.3334 20.9993 33.3334C21.2064 33.3334 21.4084 33.2691 21.5773 33.1494L21 32.3334L21.5787 33.1494L21.5893 33.1414L21.6173 33.1214L21.724 33.0441C21.8164 32.9774 21.9476 32.8801 22.1173 32.7521C24.0987 31.2566 25.9689 29.6195 27.7133 27.8534C29.244 26.2961 30.8 24.4761 31.9787 22.5454C33.152 20.6254 34 18.5134 34 16.3961C34 13.8827 33.22 11.9187 31.84 10.5854C30.4667 9.26008 28.6133 8.66675 26.6667 8.66675C24.3667 8.66675 22.336 9.77741 21 11.4894C19.664 9.77741 17.632 8.66675 15.3333 8.66675C11.2267 8.66675 8 12.1854 8 16.3961C8 18.5134 8.84933 20.6241 10.0213 22.5454C11.2 24.4761 12.756 26.2961 14.2867 27.8547C16.1464 29.7363 18.1488 31.4712 20.276 33.0441L20.3827 33.1214L20.4107 33.1414L20.4213 33.1494Z" fill="#FF7802"/>
</svg>
