<svg width="42" height="42" viewBox="0 0 42 42" fill="none" xmlns="http://www.w3.org/2000/svg">
<path fill-rule="evenodd" clip-rule="evenodd" d="M29.2693 8.08033C29.0356 8.00156 28.7864 7.98032 28.5428 8.01838C28.2992 8.05645 28.0682 8.15272 27.8693 8.29909C27.4618 8.59598 27.2222 9.07256 27.2222 9.58039V22.9653C26.2528 22.4912 25.1893 22.2434 24.1111 22.2402C21.0156 22.2402 17.8889 24.3372 17.8889 27.6201C17.8889 30.903 21.0156 33 24.1111 33C27.2067 33 30.3333 30.903 30.3333 27.6201V12.3758C31.1702 13.1571 31.8889 14.2806 31.8889 15.9103C31.8889 16.7853 32.5858 17.4932 33.4444 17.4932C34.3031 17.4932 35 16.7853 35 15.9103C35 12.9336 33.5129 10.9414 32.1067 9.75071C31.3411 9.10554 30.4832 8.57984 29.5618 8.19128L29.3036 8.09284L29.2833 8.08502L29.2756 8.0819H29.2724L29.2693 8.08033ZM8.55556 9.58039C7.69689 9.58039 7 10.2898 7 11.1633C7 12.0383 7.69689 12.7461 8.55556 12.7461H22.5556C23.4142 12.7461 24.1111 12.0383 24.1111 11.1633C24.1111 10.2882 23.4142 9.58195 22.5556 9.58195L8.55556 9.58039ZM8.55556 15.9103C7.69689 15.9103 7 16.6197 7 17.4932C7 18.3682 7.69689 19.0761 8.55556 19.0761H22.5556C23.4142 19.0761 24.1111 18.3667 24.1111 17.4932C24.1111 16.6181 23.4142 15.9103 22.5556 15.9103H8.55556ZM8.55556 22.2387C7.69689 22.2387 7 22.9481 7 23.8231C7 24.6966 7.69689 25.4044 8.55556 25.4044H14.7778C15.6364 25.4044 16.3333 24.6966 16.3333 23.8231C16.3333 22.9481 15.6364 22.2402 14.7778 22.2402L8.55556 22.2387Z" fill="white"/>
</svg>
