<svg width="42" height="42" viewBox="0 0 42 42" fill="none" xmlns="http://www.w3.org/2000/svg">
<path d="M28.2791 25.1829H25.0827C24.862 25.1829 24.6831 25.3617 24.6831 25.5824V28.7788C24.6831 28.9995 24.862 29.1784 25.0827 29.1784H28.2791C28.4998 29.1784 28.6786 28.9995 28.6786 28.7788V25.5824C28.6786 25.3617 28.4998 25.1829 28.2791 25.1829Z" fill="white"/>
<path d="M24.2837 21.9868H21.8864C21.6657 21.9868 21.4868 22.1657 21.4868 22.3864V24.7837C21.4868 25.0044 21.6657 25.1832 21.8864 25.1832H24.2837C24.5044 25.1832 24.6832 25.0044 24.6832 24.7837V22.3864C24.6832 22.1657 24.5044 21.9868 24.2837 21.9868Z" fill="white"/>
<path d="M31.4756 29.179H29.0783C28.8576 29.179 28.6787 29.3578 28.6787 29.5785V31.9758C28.6787 32.1965 28.8576 32.3754 29.0783 32.3754H31.4756C31.6963 32.3754 31.8751 32.1965 31.8751 31.9758V29.5785C31.8751 29.3578 31.6963 29.179 31.4756 29.179Z" fill="white"/>
<path d="M31.4753 21.9868H29.8771C29.6564 21.9868 29.4775 22.1657 29.4775 22.3864V23.9846C29.4775 24.2053 29.6564 24.3841 29.8771 24.3841H31.4753C31.696 24.3841 31.8749 24.2053 31.8749 23.9846V22.3864C31.8749 22.1657 31.696 21.9868 31.4753 21.9868Z" fill="white"/>
<path d="M23.4846 29.9773H21.8864C21.6657 29.9773 21.4868 30.1562 21.4868 30.3768V31.9751C21.4868 32.1957 21.6657 32.3746 21.8864 32.3746H23.4846C23.7053 32.3746 23.8841 32.1957 23.8841 31.9751V30.3768C23.8841 30.1562 23.7053 29.9773 23.4846 29.9773Z" fill="white"/>
<path d="M30.2768 10H23.0848C22.6609 10 22.2544 10.1684 21.9547 10.4681C21.655 10.7678 21.4866 11.1743 21.4866 11.5982V18.7902C21.4866 19.2141 21.655 19.6206 21.9547 19.9203C22.2544 20.22 22.6609 20.3884 23.0848 20.3884H30.2768C30.7007 20.3884 31.1072 20.22 31.4069 19.9203C31.7066 19.6206 31.875 19.2141 31.875 18.7902V11.5982C31.875 11.1743 31.7066 10.7678 31.4069 10.4681C31.1072 10.1684 30.7007 10 30.2768 10ZM28.6786 16.7924C28.6786 16.8984 28.6365 17 28.5615 17.0749C28.4866 17.1499 28.385 17.192 28.279 17.192H25.0826C24.9766 17.192 24.875 17.1499 24.8001 17.0749C24.7251 17 24.683 16.8984 24.683 16.7924V13.596C24.683 13.49 24.7251 13.3884 24.8001 13.3135C24.875 13.2385 24.9766 13.1964 25.0826 13.1964H28.279C28.385 13.1964 28.4866 13.2385 28.5615 13.3135C28.6365 13.3884 28.6786 13.49 28.6786 13.596V16.7924ZM18.2902 10H11.0982C10.6743 10 10.2678 10.1684 9.96811 10.4681C9.66838 10.7678 9.5 11.1743 9.5 11.5982V18.7902C9.5 19.2141 9.66838 19.6206 9.96811 19.9203C10.2678 20.22 10.6743 20.3884 11.0982 20.3884H18.2902C18.7141 20.3884 19.1206 20.22 19.4203 19.9203C19.72 19.6206 19.8884 19.2141 19.8884 18.7902V11.5982C19.8884 11.1743 19.72 10.7678 19.4203 10.4681C19.1206 10.1684 18.7141 10 18.2902 10ZM16.692 16.7924C16.692 16.8984 16.6499 17 16.5749 17.0749C16.5 17.1499 16.3984 17.192 16.2924 17.192H13.096C12.99 17.192 12.8884 17.1499 12.8135 17.0749C12.7385 17 12.6964 16.8984 12.6964 16.7924V13.596C12.6964 13.49 12.7385 13.3884 12.8135 13.3135C12.8884 13.2385 12.99 13.1964 13.096 13.1964H16.2924C16.3984 13.1964 16.5 13.2385 16.5749 13.3135C16.6499 13.3884 16.692 13.49 16.692 13.596V16.7924ZM18.2902 21.9866H11.0982C10.6743 21.9866 10.2678 22.155 9.96811 22.4547C9.66838 22.7544 9.5 23.1609 9.5 23.5848V30.7768C9.5 31.2007 9.66838 31.6072 9.96811 31.9069C10.2678 32.2066 10.6743 32.375 11.0982 32.375H18.2902C18.7141 32.375 19.1206 32.2066 19.4203 31.9069C19.72 31.6072 19.8884 31.2007 19.8884 30.7768V23.5848C19.8884 23.1609 19.72 22.7544 19.4203 22.4547C19.1206 22.155 18.7141 21.9866 18.2902 21.9866ZM16.692 28.779C16.692 28.885 16.6499 28.9866 16.5749 29.0615C16.5 29.1365 16.3984 29.1786 16.2924 29.1786H13.096C12.99 29.1786 12.8884 29.1365 12.8135 29.0615C12.7385 28.9866 12.6964 28.885 12.6964 28.779V25.5826C12.6964 25.4766 12.7385 25.375 12.8135 25.3001C12.8884 25.2251 12.99 25.183 13.096 25.183H16.2924C16.3984 25.183 16.5 25.2251 16.5749 25.3001C16.6499 25.375 16.692 25.4766 16.692 25.5826V28.779Z" fill="white"/>
</svg>
