<svg width="42" height="42" viewBox="0 0 42 42" fill="none" xmlns="http://www.w3.org/2000/svg">
<path fill-rule="evenodd" clip-rule="evenodd" d="M28.5208 10.2816C28.5208 9.94167 28.3858 9.6157 28.1455 9.37536C27.9051 9.13502 27.5792 9 27.2393 9C26.8994 9 26.5734 9.13502 26.3331 9.37536C26.0927 9.6157 25.9577 9.94167 25.9577 10.2816V11.5631H10.5789C10.239 11.5631 9.91306 11.6982 9.67272 11.9385C9.43238 12.1788 9.29736 12.5048 9.29736 12.8447C9.29736 13.1846 9.43238 13.5106 9.67272 13.7509C9.91306 13.9912 10.239 14.1263 10.5789 14.1263H25.9577V15.4078C25.9577 15.7477 26.0927 16.0737 26.3331 16.314C26.5734 16.5544 26.8994 16.6894 27.2393 16.6894C27.5792 16.6894 27.9051 16.5544 28.1455 16.314C28.3858 16.0737 28.5208 15.7477 28.5208 15.4078V14.1263H31.084C31.4238 14.1263 31.7498 13.9912 31.9902 13.7509C32.2305 13.5106 32.3655 13.1846 32.3655 12.8447C32.3655 12.5048 32.2305 12.1788 31.9902 11.9385C31.7498 11.6982 31.4238 11.5631 31.084 11.5631H28.5208V10.2816ZM10.5789 19.2525C10.239 19.2525 9.91306 19.3875 9.67272 19.6279C9.43238 19.8682 9.29736 20.1942 9.29736 20.5341C9.29736 20.874 9.43238 21.1999 9.67272 21.4403C9.91306 21.6806 10.239 21.8156 10.5789 21.8156H13.1421V23.0972C13.1421 23.4371 13.2771 23.7631 13.5174 24.0034C13.7578 24.2438 14.0837 24.3788 14.4236 24.3788C14.7635 24.3788 15.0895 24.2438 15.3298 24.0034C15.5702 23.7631 15.7052 23.4371 15.7052 23.0972V21.8156H31.084C31.4238 21.8156 31.7498 21.6806 31.9902 21.4403C32.2305 21.1999 32.3655 20.874 32.3655 20.5341C32.3655 20.1942 32.2305 19.8682 31.9902 19.6279C31.7498 19.3875 31.4238 19.2525 31.084 19.2525H15.7052V17.971C15.7052 17.6311 15.5702 17.3051 15.3298 17.0647C15.0895 16.8244 14.7635 16.6894 14.4236 16.6894C14.0837 16.6894 13.7578 16.8244 13.5174 17.0647C13.2771 17.3051 13.1421 17.6311 13.1421 17.971V19.2525H10.5789ZM9.29736 28.2235C9.29736 27.8836 9.43238 27.5576 9.67272 27.3173C9.91306 27.0769 10.239 26.9419 10.5789 26.9419H25.9577V25.6603C25.9577 25.3204 26.0927 24.9945 26.3331 24.7541C26.5734 24.5138 26.8994 24.3788 27.2393 24.3788C27.5792 24.3788 27.9051 24.5138 28.1455 24.7541C28.3858 24.9945 28.5208 25.3204 28.5208 25.6603V26.9419H31.084C31.4238 26.9419 31.7498 27.0769 31.9902 27.3173C32.2305 27.5576 32.3655 27.8836 32.3655 28.2235C32.3655 28.5634 32.2305 28.8893 31.9902 29.1297C31.7498 29.37 31.4238 29.505 31.084 29.505H28.5208V30.7866C28.5208 31.1265 28.3858 31.4525 28.1455 31.6928C27.9051 31.9331 27.5792 32.0682 27.2393 32.0682C26.8994 32.0682 26.5734 31.9331 26.3331 31.6928C26.0927 31.4525 25.9577 31.1265 25.9577 30.7866V29.505H10.5789C10.239 29.505 9.91306 29.37 9.67272 29.1297C9.43238 28.8893 9.29736 28.5634 9.29736 28.2235Z" fill="white"/>
</svg>
