<svg width="42" height="42" viewBox="0 0 42 42" fill="none" xmlns="http://www.w3.org/2000/svg">
<path fill-rule="evenodd" clip-rule="evenodd" d="M15.625 15.4534V20.5C15.625 21.9421 16.1979 23.3252 17.2176 24.3449C18.2373 25.3646 19.6204 25.9375 21.0625 25.9375C22.4122 25.9375 23.7102 25.4357 24.707 24.5354L15.625 15.4534ZM26.4974 20.669C26.4991 20.6127 26.5 20.5564 26.5 20.5V11.4375C26.5 9.99539 25.9271 8.61234 24.9074 7.59261C23.8877 6.57288 22.5046 6 21.0625 6C19.6204 6 18.2373 6.57288 17.2176 7.59261C16.5463 8.26393 16.0686 9.09272 15.8206 9.99217L26.4974 20.669Z" fill="white"/>
<path fill-rule="evenodd" clip-rule="evenodd" d="M25.9898 25.8183C24.6521 27.0578 22.893 27.75 21.0625 27.75C19.1397 27.75 17.2956 26.9862 15.936 25.6265C14.5763 24.2669 13.8125 22.4228 13.8125 20.5V18.6875C13.8125 18.4471 13.717 18.2166 13.5471 18.0467C13.3771 17.8767 13.1466 17.7812 12.9062 17.7812C12.6659 17.7812 12.4354 17.8767 12.2654 18.0467C12.0955 18.2166 12 18.4471 12 18.6875V20.5C12 22.7466 12.8344 24.9132 14.3415 26.5794C15.8486 28.2455 17.9209 29.2925 20.1562 29.5172V33.1875H14.7188C14.4784 33.1875 14.2479 33.283 14.0779 33.4529C13.908 33.6229 13.8125 33.8534 13.8125 34.0938C13.8125 34.3341 13.908 34.5646 14.0779 34.7346C14.2479 34.9045 14.4784 35 14.7188 35H27.4062C27.6466 35 27.8771 34.9045 28.0471 34.7346C28.217 34.5646 28.3125 34.3341 28.3125 34.0938C28.3125 33.8534 28.217 33.6229 28.0471 33.4529C27.8771 33.283 27.6466 33.1875 27.4062 33.1875H21.9688V29.5172C23.9611 29.317 25.8238 28.4635 27.2723 27.1007L25.9898 25.8183ZM29.5378 23.7093C29.9228 22.6924 30.125 21.6059 30.125 20.5V18.6875C30.125 18.4471 30.0295 18.2166 29.8596 18.0467C29.6896 17.8767 29.4591 17.7812 29.2188 17.7812C28.9784 17.7812 28.7479 17.8767 28.5779 18.0467C28.408 18.2166 28.3125 18.4471 28.3125 18.6875V20.5C28.3125 21.1004 28.238 21.6931 28.0942 22.2658L29.5378 23.7093Z" fill="white"/>
<path d="M32.5097 29.5097L9 6" stroke="white" stroke-width="2.23902" stroke-miterlimit="10" stroke-linecap="round"/>
</svg>
