<svg width="42" height="42" viewBox="0 0 42 42" fill="none" xmlns="http://www.w3.org/2000/svg">
<path d="M21 8C13.8203 8 8 13.8203 8 21C8 28.1797 13.8203 34 21 34C25.8189 34 30.0218 31.3761 32.2671 27.481L27.6904 24.8483C26.3564 27.1621 23.8628 28.7235 21 28.7235C16.7344 28.7235 13.2765 25.2656 13.2765 21C13.2765 16.7344 16.7344 13.2765 21 13.2765C22.8284 13.2765 24.5042 13.9161 25.8258 14.9792L22.4124 17.4072L34 21.2714V9.16162L30.2263 11.8467C27.871 9.47229 24.6086 8 21 8Z" fill="white"/>
</svg>
