<svg width="42" height="42" viewBox="0 0 42 42" fill="none" xmlns="http://www.w3.org/2000/svg">
<path d="M21 30C23.3869 30 25.6761 29.0518 27.364 27.364C29.0518 25.6761 30 23.3869 30 21C30 18.6131 29.0518 16.3239 27.364 14.636C25.6761 12.9482 23.3869 12 21 12C18.6131 12 16.3239 12.9482 14.636 14.636C12.9482 16.3239 12 18.6131 12 21C12 23.3869 12.9482 25.6761 14.636 27.364C16.3239 29.0518 18.6131 30 21 30ZM21 6C12.7155 6 6 12.7155 6 21C6 29.2845 12.7155 36 21 36C29.2845 36 36 29.2845 36 21C36 12.7155 29.2845 6 21 6ZM8.25 21C8.25 17.6185 9.5933 14.3755 11.9844 11.9844C14.3755 9.5933 17.6185 8.25 21 8.25C24.3815 8.25 27.6245 9.5933 30.0156 11.9844C32.4067 14.3755 33.75 17.6185 33.75 21C33.75 24.3815 32.4067 27.6245 30.0156 30.0156C27.6245 32.4067 24.3815 33.75 21 33.75C17.6185 33.75 14.3755 32.4067 11.9844 30.0156C9.5933 27.6245 8.25 24.3815 8.25 21Z" fill="white"/>
</svg>
