<svg width="42" height="42" viewBox="0 0 42 42" fill="none" xmlns="http://www.w3.org/2000/svg">
<path d="M33.4619 20.2952L21.6487 8.27379C21.5636 8.187 21.4626 8.11814 21.3514 8.07116C21.2402 8.02418 21.1209 8 21.0005 8C20.8801 8 20.7609 8.02418 20.6497 8.07116C20.5385 8.11814 20.4374 8.187 20.3524 8.27379L8.53918 20.2952C8.19502 20.6457 8 21.1217 8 21.6182C8 22.6492 8.82311 23.4874 9.8355 23.4874H11.0802V32.0654C11.0802 32.5823 11.4903 33 11.998 33H19.165V26.4577H22.3772V33H30.0031C30.5107 33 30.9209 32.5823 30.9209 32.0654V23.4874H32.1656C32.6531 23.4874 33.1206 23.2918 33.4648 22.9384C34.1789 22.2082 34.1789 21.0253 33.4619 20.2952Z" fill="white"/>
</svg>
