<svg width="42" height="42" viewBox="0 0 42 42" fill="none" xmlns="http://www.w3.org/2000/svg">
<path d="M15.5789 26.3333C15.5789 27.3942 15.1797 28.4116 14.469 29.1618C13.7584 29.9119 12.7945 30.3333 11.7895 30.3333C10.7844 30.3333 9.82058 29.9119 9.10991 29.1618C8.39925 28.4116 8 27.3942 8 26.3333C8 25.2725 8.39925 24.2551 9.10991 23.5049C9.82058 22.7548 10.7844 22.3333 11.7895 22.3333C12.7945 22.3333 13.7584 22.7548 14.469 23.5049C15.1797 24.2551 15.5789 25.2725 15.5789 26.3333ZM15.5789 26.3333V9H28.2105V21M15.5789 14.3333H28.2105M32 33L25.6842 26.3333M25.6842 33L32 26.3333" stroke="white" stroke-width="2.71053" stroke-linecap="round" stroke-linejoin="round"/>
</svg>
