<svg width="42" height="42" viewBox="0 0 42 42" fill="none" xmlns="http://www.w3.org/2000/svg">
<path d="M11.5855 8.14682C11.4261 8.0523 11.2445 8.00166 11.0592 8.00004C10.8738 7.99842 10.6914 8.04588 10.5304 8.1376C10.3693 8.22932 10.2354 8.36203 10.1423 8.52225C10.0491 8.68247 10 8.86449 10 9.04982V33.3643C10 33.5496 10.0491 33.7317 10.1423 33.8919C10.2354 34.0521 10.3693 34.1848 10.5304 34.2765C10.6914 34.3682 10.8738 34.4157 11.0592 34.4141C11.2445 34.4125 11.4261 34.3618 11.5855 34.2673L32.1007 22.1101C32.2574 22.0171 32.3872 21.885 32.4774 21.7266C32.5675 21.5683 32.6149 21.3893 32.6149 21.2071C32.6149 21.0249 32.5675 20.8458 32.4774 20.6875C32.3872 20.5292 32.2574 20.397 32.1007 20.3041L11.5855 8.14682Z" fill="white" stroke="white" stroke-width="1.5" stroke-linecap="round" stroke-linejoin="round"/>
</svg>
