<svg width="42" height="42" viewBox="0 0 42 42" fill="none" xmlns="http://www.w3.org/2000/svg">
<path d="M15.625 11.4375C15.625 9.99539 16.1979 8.61234 17.2176 7.59261C18.2373 6.57288 19.6204 6 21.0625 6C22.5046 6 23.8877 6.57288 24.9074 7.59261C25.9271 8.61234 26.5 9.99539 26.5 11.4375V20.5C26.5 21.9421 25.9271 23.3252 24.9074 24.3449C23.8877 25.3646 22.5046 25.9375 21.0625 25.9375C19.6204 25.9375 18.2373 25.3646 17.2176 24.3449C16.1979 23.3252 15.625 21.9421 15.625 20.5V11.4375Z" fill="white"/>
<path d="M12.9062 17.7812C13.1466 17.7812 13.3771 17.8767 13.5471 18.0467C13.717 18.2166 13.8125 18.4471 13.8125 18.6875V20.5C13.8125 22.4228 14.5763 24.2669 15.936 25.6265C17.2956 26.9862 19.1397 27.75 21.0625 27.75C22.9853 27.75 24.8294 26.9862 26.189 25.6265C27.5487 24.2669 28.3125 22.4228 28.3125 20.5V18.6875C28.3125 18.4471 28.408 18.2166 28.5779 18.0467C28.7479 17.8767 28.9784 17.7812 29.2188 17.7812C29.4591 17.7812 29.6896 17.8767 29.8596 18.0467C30.0295 18.2166 30.125 18.4471 30.125 18.6875V20.5C30.125 22.7466 29.2906 24.9132 27.7835 26.5794C26.2764 28.2455 24.2041 29.2925 21.9688 29.5172V33.1875H27.4062C27.6466 33.1875 27.8771 33.283 28.0471 33.4529C28.217 33.6229 28.3125 33.8534 28.3125 34.0938C28.3125 34.3341 28.217 34.5646 28.0471 34.7346C27.8771 34.9045 27.6466 35 27.4062 35H14.7188C14.4784 35 14.2479 34.9045 14.0779 34.7346C13.908 34.5646 13.8125 34.3341 13.8125 34.0938C13.8125 33.8534 13.908 33.6229 14.0779 33.4529C14.2479 33.283 14.4784 33.1875 14.7188 33.1875H20.1562V29.5172C17.9209 29.2925 15.8486 28.2455 14.3415 26.5794C12.8344 24.9132 12 22.7466 12 20.5V18.6875C12 18.4471 12.0955 18.2166 12.2654 18.0467C12.4354 17.8767 12.6659 17.7812 12.9062 17.7812Z" fill="white"/>
</svg>
