<svg width="42" height="42" viewBox="0 0 42 42" fill="none" xmlns="http://www.w3.org/2000/svg">
<path d="M15.75 8.75H12.25C11.2835 8.75 10.5 9.5335 10.5 10.5V31.5C10.5 32.4665 11.2835 33.25 12.25 33.25H15.75C16.7165 33.25 17.5 32.4665 17.5 31.5V10.5C17.5 9.5335 16.7165 8.75 15.75 8.75Z" fill="white"/>
<path d="M29.75 8.75H26.25C25.2835 8.75 24.5 9.5335 24.5 10.5V31.5C24.5 32.4665 25.2835 33.25 26.25 33.25H29.75C30.7165 33.25 31.5 32.4665 31.5 31.5V10.5C31.5 9.5335 30.7165 8.75 29.75 8.75Z" fill="white"/>
</svg>
