<svg width="32" height="32" viewBox="0 0 32 32" fill="none" xmlns="http://www.w3.org/2000/svg">
<path d="M16.0026 5.33325C17.4171 5.33325 18.7736 5.89515 19.7738 6.89535C20.774 7.89554 21.3359 9.2521 21.3359 10.6666C21.3359 12.0811 20.774 13.4376 19.7738 14.4378C18.7736 15.438 17.4171 15.9999 16.0026 15.9999C14.5881 15.9999 13.2316 15.438 12.2314 14.4378C11.2312 13.4376 10.6693 12.0811 10.6693 10.6666C10.6693 9.2521 11.2312 7.89554 12.2314 6.89535C13.2316 5.89515 14.5881 5.33325 16.0026 5.33325ZM16.0026 18.6666C21.8959 18.6666 26.6693 21.0533 26.6693 23.9999V26.6666H5.33594V23.9999C5.33594 21.0533 10.1093 18.6666 16.0026 18.6666Z" fill="white"/>
</svg>
