<svg width="32" height="32" viewBox="0 0 32 32" fill="none" xmlns="http://www.w3.org/2000/svg">
<path d="M16.0014 4.00002C18.4768 4.00002 20.8507 4.98335 22.6011 6.73369C24.3514 8.48403 25.3348 10.858 25.3348 13.3334V18.352L27.7641 23.2107C27.8759 23.4343 27.9287 23.6828 27.9175 23.9326C27.9063 24.1824 27.8314 24.4251 27.6999 24.6378C27.5684 24.8505 27.3848 25.026 27.1664 25.1478C26.948 25.2695 26.7021 25.3334 26.4521 25.3334H5.55075C5.30072 25.3334 5.05483 25.2695 4.83644 25.1478C4.61805 25.026 4.4344 24.8505 4.30295 24.6378C4.17149 24.4251 4.09659 24.1824 4.08535 23.9326C4.07412 23.6828 4.12692 23.4343 4.23875 23.2107L6.66809 18.352V13.3334C6.66809 10.858 7.65142 8.48403 9.40176 6.73369C11.1521 4.98335 13.5261 4.00002 16.0014 4.00002ZM16.0014 6.66669C14.2333 6.66669 12.5376 7.36907 11.2874 8.61931C10.0371 9.86955 9.33475 11.5652 9.33475 13.3334V18.352C9.33472 18.7658 9.23841 19.1739 9.05342 19.544L7.49342 22.6667H24.5108L22.9508 19.544C22.7653 19.174 22.6685 18.7659 22.6681 18.352V13.3334C22.6681 11.5652 21.9657 9.86955 20.7155 8.61931C19.4652 7.36907 17.7695 6.66669 16.0014 6.66669ZM22.5081 3.16002C22.7308 2.88556 23.0533 2.71073 23.4049 2.67398C23.7564 2.63723 24.1081 2.74155 24.3828 2.96402C25.8278 4.13096 27.0132 5.58696 27.8628 7.23869C28.0165 7.55218 28.0411 7.91347 27.9314 8.24494C27.8216 8.5764 27.5862 8.85158 27.2758 9.01136C26.9653 9.17113 26.6045 9.20274 26.271 9.0994C25.9375 8.99606 25.6578 8.76601 25.4921 8.45869C24.812 7.136 23.8628 5.97016 22.7054 5.03602C22.4308 4.81353 22.2557 4.49108 22.2187 4.13954C22.1817 3.78801 22.2858 3.43616 22.5081 3.16136V3.16002ZM9.49475 3.16002C9.60504 3.29613 9.68742 3.45264 9.7372 3.6206C9.78697 3.78857 9.80316 3.96469 9.78483 4.13891C9.76651 4.31314 9.71403 4.48204 9.63039 4.63597C9.54676 4.7899 9.43361 4.92584 9.29742 5.03602C8.1447 5.96632 7.19838 7.12651 6.51875 8.44269C6.44136 8.60323 6.33256 8.74662 6.1988 8.86439C6.06504 8.98216 5.90902 9.07192 5.73998 9.12836C5.57093 9.18481 5.39228 9.20679 5.2146 9.193C5.03691 9.17922 4.86379 9.12996 4.70547 9.04812C4.54715 8.96629 4.40684 8.85354 4.29284 8.71656C4.17884 8.57957 4.09346 8.42111 4.04174 8.25056C3.99003 8.08001 3.97303 7.90082 3.99175 7.72359C4.01048 7.54635 4.06454 7.37467 4.15075 7.21869C4.99955 5.57517 6.18103 4.12624 7.62009 2.96402C7.89489 2.7417 8.24674 2.6376 8.59827 2.67461C8.9498 2.71161 9.27226 2.88669 9.49475 3.16136V3.16002ZM12.0014 26.6667H20.0014C20.0014 27.3739 19.7205 28.0522 19.2204 28.5523C18.7203 29.0524 18.042 29.3334 17.3348 29.3334H14.6681C13.9608 29.3334 13.2826 29.0524 12.7825 28.5523C12.2824 28.0522 12.0014 27.3739 12.0014 26.6667Z" fill="white"/>
</svg>
