<svg width="32" height="32" viewBox="0 0 32 32" fill="none" xmlns="http://www.w3.org/2000/svg">
<g clip-path="url(#clip0_1161_32574)">
<path d="M16 27C22.075 27 27 22.075 27 16C27 9.925 22.075 5 16 5M16 27C9.925 27 5 22.075 5 16C5 9.925 9.925 5 16 5M16 27C19 27 20 22 20 16C20 10 19 5 16 5M16 27C13 27 12 22 12 16C12 10 13 5 16 5M6 20H26M6 12H26" stroke="white" stroke-width="2"/>
</g>
<defs>
<clipPath id="clip0_1161_32574">
<rect width="24" height="24" fill="white" transform="translate(4 4)"/>
</clipPath>
</defs>
</svg>
