<svg width="32" height="32" viewBox="0 0 32 32" fill="none" xmlns="http://www.w3.org/2000/svg">
<path d="M15.9998 28C22.5531 28 28 22.5647 28 16C28 9.44683 22.541 4 15.9877 4C9.42336 4 4 9.44683 4 16C4 22.5647 9.4349 28 15.9998 28ZM15.9887 17.7649C15.3647 17.7649 15.0239 17.4 14.9998 16.776L14.8352 10.9653C14.8116 10.3177 15.3055 9.85945 15.9762 9.85945C16.6353 9.85945 17.1407 10.3298 17.1177 10.9768L16.9525 16.777C16.9289 17.412 16.576 17.7654 15.9882 17.7654M15.9882 22.0949C15.3055 22.0949 14.67 21.5538 14.67 20.8239C14.67 20.094 15.294 19.5539 15.9882 19.5539C16.6704 19.5539 17.3054 20.083 17.3054 20.8239C17.3054 21.5653 16.6583 22.0949 15.9882 22.0949Z" fill="white"/>
</svg>
