<svg width="32" height="32" viewBox="0 0 32 32" fill="none" xmlns="http://www.w3.org/2000/svg">
<path d="M16.0026 22.6668C16.7098 22.6668 17.3881 22.3859 17.8882 21.8858C18.3883 21.3857 18.6693 20.7074 18.6693 20.0002C18.6693 19.2929 18.3883 18.6146 17.8882 18.1145C17.3881 17.6144 16.7098 17.3335 16.0026 17.3335C15.2954 17.3335 14.6171 17.6144 14.117 18.1145C13.6169 18.6146 13.3359 19.2929 13.3359 20.0002C13.3359 20.7074 13.6169 21.3857 14.117 21.8858C14.6171 22.3859 15.2954 22.6668 16.0026 22.6668ZM24.0026 10.6668C24.7098 10.6668 25.3881 10.9478 25.8882 11.4479C26.3883 11.948 26.6693 12.6263 26.6693 13.3335V26.6668C26.6693 27.3741 26.3883 28.0524 25.8882 28.5524C25.3881 29.0525 24.7098 29.3335 24.0026 29.3335H8.0026C7.29536 29.3335 6.61708 29.0525 6.11699 28.5524C5.61689 28.0524 5.33594 27.3741 5.33594 26.6668V13.3335C5.33594 12.6263 5.61689 11.948 6.11699 11.4479C6.61708 10.9478 7.29536 10.6668 8.0026 10.6668H9.33594V8.00016C9.33594 6.23205 10.0383 4.53636 11.2886 3.28612C12.5388 2.03588 14.2345 1.3335 16.0026 1.3335C16.8781 1.3335 17.745 1.50593 18.5538 1.84097C19.3627 2.176 20.0976 2.66706 20.7167 3.28612C21.3357 3.90517 21.8268 4.6401 22.1618 5.44894C22.4968 6.25778 22.6693 7.12468 22.6693 8.00016V10.6668H24.0026ZM16.0026 4.00016C14.9417 4.00016 13.9243 4.42159 13.1742 5.17174C12.424 5.92188 12.0026 6.9393 12.0026 8.00016V10.6668H20.0026V8.00016C20.0026 6.9393 19.5812 5.92188 18.831 5.17174C18.0809 4.42159 17.0635 4.00016 16.0026 4.00016Z" fill="white"/>
</svg>
