<svg width="32" height="32" viewBox="0 0 32 32" fill="none" xmlns="http://www.w3.org/2000/svg">
<path d="M16.0026 5.3335C17.4171 5.3335 18.7736 5.8954 19.7738 6.89559C20.774 7.89579 21.3359 9.25234 21.3359 10.6668C21.3359 12.0813 20.774 13.4379 19.7738 14.4381C18.7736 15.4383 17.4171 16.0002 16.0026 16.0002C14.5881 16.0002 13.2316 15.4383 12.2314 14.4381C11.2312 13.4379 10.6693 12.0813 10.6693 10.6668C10.6693 9.25234 11.2312 7.89579 12.2314 6.89559C13.2316 5.8954 14.5881 5.3335 16.0026 5.3335ZM16.0026 18.6668C21.8959 18.6668 26.6693 21.0535 26.6693 24.0002V26.6668H5.33594V24.0002C5.33594 21.0535 10.1093 18.6668 16.0026 18.6668Z" fill="white"/>
</svg>
