<svg width="32" height="32" viewBox="0 0 32 32" fill="none" xmlns="http://www.w3.org/2000/svg">
<path d="M2 23.5C2 24.4283 2.36875 25.3185 3.02513 25.9749C3.6815 26.6313 4.57174 27 5.5 27H26.5C27.4283 27 28.3185 26.6313 28.9749 25.9749C29.6313 25.3185 30 24.4283 30 23.5V13.875H2V23.5ZM6.125 18.75C6.125 18.2527 6.32254 17.7758 6.67417 17.4242C7.02581 17.0725 7.50272 16.875 8 16.875H11C11.4973 16.875 11.9742 17.0725 12.3258 17.4242C12.6775 17.7758 12.875 18.2527 12.875 18.75V20C12.875 20.4973 12.6775 20.9742 12.3258 21.3258C11.9742 21.6775 11.4973 21.875 11 21.875H8C7.50272 21.875 7.02581 21.6775 6.67417 21.3258C6.32254 20.9742 6.125 20.4973 6.125 20V18.75ZM26.5 5H5.5C4.57174 5 3.6815 5.36875 3.02513 6.02513C2.36875 6.6815 2 7.57174 2 8.5V10.125H30V8.5C30 7.57174 29.6313 6.6815 28.9749 6.02513C28.3185 5.36875 27.4283 5 26.5 5Z" fill="white"/>
</svg>
